<svg width="602" height="388" viewBox="0 0 602 388" fill="none" xmlns="http://www.w3.org/2000/svg">
<path d="M336.927 246.488C360.604 246.488 379.748 265.799 379.748 289.476C379.748 313.154 360.604 332.465 336.927 332.465H320.471V364.034H283.696V246.488H336.927ZM331.554 299.888C337.263 299.888 341.965 295.186 341.965 289.476C341.965 283.767 337.263 279.065 331.554 279.065H320.471V299.888H331.554ZM471.317 364.034H386.516V246.488H469.134V279.065H423.291V288.301H461.577V320.71H423.291V331.625H471.317V364.034ZM474.267 246.488H564.946V279.065H537.91V364.034H501.135V279.065H474.267V246.488Z" fill="#073B4C"/>
<path d="M141.448 156.306V185.357C141.448 195.264 138.761 204.5 133.387 212.056L142.455 228.681L113.908 244.13L106.016 229.688C100.81 231.032 94.9329 231.703 88.5518 231.703C53.6239 231.703 35.824 210.545 35.824 185.357V156.306C35.824 131.118 53.6239 109.959 88.5518 109.959C123.648 109.959 141.448 131.118 141.448 156.306ZM88.5518 199.294C102.489 199.294 103.665 187.54 103.665 185.357V156.306C103.665 154.123 102.489 142.368 88.5518 142.368C74.7822 142.368 73.6067 154.123 73.6067 156.306V185.357C73.6067 187.54 74.7822 199.294 88.5518 199.294ZM250.401 192.409C250.401 218.941 226.892 231.703 200.528 231.703H200.36C173.996 231.703 150.654 218.941 150.654 192.409V111.974H187.43V188.211C187.43 196.943 193.811 199.294 200.528 199.294C207.077 199.294 213.458 196.943 213.458 188.211V111.974H250.401V192.409ZM346.171 229.52H261.37V111.974H343.988V144.551H298.145V153.787H336.431V186.196H298.145V197.111H346.171V229.52ZM414.779 229.52L396.307 194.089H392.109V229.52H355.334V111.974H410.413C433.083 111.974 451.386 130.446 451.386 153.115C451.386 167.053 444.501 179.311 433.922 186.7L456.088 229.52H414.779ZM413.604 153.115C413.604 148.414 409.741 144.551 405.039 144.551H392.109V161.679H405.039C409.741 161.679 413.604 157.817 413.604 153.115ZM512.623 109.959C547.719 109.959 565.519 131.118 565.519 156.306V185.357C565.519 210.545 547.719 231.703 512.623 231.703C477.695 231.703 459.895 210.545 459.895 185.357V156.306C459.895 131.118 477.695 109.959 512.623 109.959ZM527.736 185.357V156.306C527.736 154.123 526.561 142.368 512.623 142.368C498.853 142.368 497.678 154.123 497.678 156.306V185.357C497.678 187.54 498.853 199.294 512.623 199.294C526.561 199.294 527.736 187.54 527.736 185.357Z" fill="#073B4C"/>
<path d="M224.483 213.684C225.373 214.517 226.541 215.241 227.51 215.528C228.784 215.937 230.364 215.842 233.138 215.186C234.333 214.913 236.085 214.599 237.054 214.49C238.023 214.367 239.111 214.189 239.483 214.094C241.049 213.657 241.753 213.725 242.337 214.353C242.815 214.872 242.815 215.828 242.337 219.474C241.859 223.189 241.793 223.503 241.235 224.568C240.412 226.18 239.324 226.958 235.634 228.556C232.607 229.867 231.558 230.591 228.957 233.145L227.337 234.729L227.47 236.709C227.669 239.755 227.908 240.643 228.983 242.186C229.607 243.087 230.842 245.586 231.213 246.733C231.505 247.594 232.819 248.946 234.2 249.765C235.235 250.394 235.992 251.145 236.271 251.841C236.549 252.551 238.434 254.532 239.881 255.665C241.222 256.717 241.647 257.249 242.802 259.311C243.691 260.909 244.939 262.22 246.12 262.78L247.009 263.217L249.293 263.135C253.487 262.985 255.213 262.493 260.191 260.063C263.947 258.233 265.089 257.891 269.363 257.249C274.354 256.498 276.518 255.733 278.058 254.163C278.668 253.548 278.854 253.248 279.093 252.456C279.743 250.38 280.805 248.891 282.305 247.976C283.354 247.348 283.487 247.348 283.487 247.935C283.487 248.222 283.566 248.427 283.686 248.482C283.792 248.523 283.885 248.7 283.885 248.864C283.885 249.041 283.978 249.683 284.097 250.312C284.31 251.377 284.31 251.5 284.084 252.292C283.964 252.756 283.792 253.275 283.726 253.439C283.633 253.644 283.633 253.862 283.739 254.176C284.084 255.201 283.832 256.744 283.062 258.328C282.226 260.035 281.695 260.445 280.354 260.445C279.757 260.445 278.92 260.582 278.097 260.8C277.367 260.991 276.106 261.292 275.27 261.469C272.881 261.988 271.805 262.685 271.805 263.736C271.805 264.091 271.527 264.433 271.102 264.583C270.969 264.638 270.505 264.542 270.08 264.392C268.726 263.914 268.102 264.146 263.045 267.028C262.062 267.587 259.925 268.776 258.292 269.663C256.673 270.551 255.346 271.329 255.346 271.384C255.346 271.589 255.863 271.63 259.195 271.698C262.009 271.753 262.779 271.821 264.903 272.176C271.42 273.296 273.505 272.804 275.695 269.65C275.96 269.267 276.451 268.694 276.783 268.38C277.407 267.792 279.451 266.672 279.664 266.809C279.717 266.85 279.65 267.123 279.491 267.41L279.199 267.943L279.557 268.366C279.956 268.858 279.982 269.09 279.69 269.8C279.504 270.251 279.504 270.333 279.69 270.633C279.889 270.933 279.876 270.974 279.544 271.288C279.212 271.603 279.199 271.657 279.345 272.163C279.557 272.886 279.544 273.556 279.305 274.143C279.04 274.785 278.509 275.427 278.137 275.522C277.938 275.563 277.739 275.795 277.58 276.15C277.155 277.12 277.035 277.147 272.602 277.257C267.69 277.379 266.403 277.625 266.164 278.499C265.938 279.319 265.792 279.565 265.514 279.565C265.235 279.565 265.075 279.469 263.974 278.677C263.416 278.281 263.35 278.267 262.062 278.294C261.319 278.308 260.058 278.404 259.261 278.527C256.713 278.895 250.978 279.169 241.939 279.332L240.28 279.36L239.589 281.272C238.209 285.068 236.297 288.537 233.842 291.719C232.567 293.385 228.479 297.619 226.7 299.135C226.023 299.722 224.629 300.828 223.621 301.62C222.585 302.426 221.483 303.409 221.085 303.901C219.997 305.212 219.041 306.127 217.514 307.343C216.745 307.957 215.43 309.063 214.594 309.801C213.758 310.552 212.51 311.59 211.833 312.109C210.519 313.119 209.616 314.185 209.404 315.004C209.324 315.277 208.939 315.987 208.541 316.588C207.678 317.899 207.28 318.691 206.67 320.317C205.966 322.174 205.501 323.062 204.957 323.512L204.466 323.922L204.639 327.09C204.732 328.825 204.758 330.6 204.705 331.01C204.652 331.433 204.572 334.083 204.506 336.91C204.413 341.772 204.386 342.113 204.068 343.41C202.9 348.095 199.767 355.592 197.139 359.922C195.493 362.639 195.201 363.295 194.298 366.354C193.276 369.809 193.064 370.874 193.329 371.311C193.395 371.407 193.847 371.557 194.338 371.625C195.453 371.803 195.997 372.035 196.608 372.581C197.112 373.032 197.192 373.251 196.873 373.251C196.595 373.251 196.621 373.565 196.94 373.974C197.272 374.398 197.272 374.603 196.966 374.712C196.847 374.753 196.488 375.081 196.196 375.422C195.679 376.023 195.599 376.05 194.803 376.119L193.953 376.187L193.966 376.678C193.993 377.826 195.214 380.83 196.024 381.786C196.581 382.442 196.966 382.619 198.002 382.715C199.608 382.865 204.001 384.367 204.307 384.859C204.453 385.105 204.121 385.269 203.484 385.269C202.979 385.269 202.913 385.31 202.847 385.637C202.727 386.252 202.223 387.194 201.904 387.399C201.373 387.768 200.816 387.85 199.993 387.7C199.342 387.563 199.09 387.577 198.519 387.768C198.148 387.891 197.55 388 197.192 388C196.223 388 192.997 387.222 192.519 386.88C192.055 386.539 191.643 385.651 191.63 384.995C191.63 384.244 191.431 383.657 189.891 379.792C187.621 374.056 186.413 370.178 185.166 364.538C184.648 362.216 184.542 361.465 184.542 360.345C184.528 359.047 184.555 358.925 185.046 357.818C185.776 356.152 186.44 354.145 186.732 352.711C187.037 351.222 187.303 345.609 187.117 344.353C186.865 342.523 185.683 340.105 183.068 336.036C182.245 334.752 181.369 333.318 181.104 332.826L180.639 331.939L180.573 328.866C180.52 325.82 180.52 325.779 180.095 324.564C179.524 322.952 179.126 322.27 178.542 321.887C178.064 321.587 178.011 321.587 176.564 321.737C175.741 321.833 174.679 321.901 174.188 321.901C173.697 321.901 173.179 321.969 173.033 322.051C172.821 322.16 172.701 322.147 172.502 321.955C172.29 321.764 172.197 321.751 171.905 321.887C171.4 322.119 170.604 321.955 169.569 321.409C169.383 321.3 169.091 321.218 168.931 321.218C168.772 321.218 168.533 321.163 168.4 321.081C168.268 321.013 167.564 320.918 166.847 320.89C164.644 320.781 162.427 320.166 162.427 319.661C162.427 319.47 161.511 318.842 160.423 318.282C160.144 318.132 159.865 317.913 159.825 317.776C159.786 317.64 159.613 317.49 159.44 317.449C159.268 317.408 159.029 317.257 158.896 317.107C158.777 316.971 158.591 316.848 158.485 316.848C158.392 316.848 158.312 316.725 158.312 316.575C158.312 316.424 158.206 316.247 158.06 316.192C157.808 316.097 156.586 314.772 156.586 314.594C156.586 314.54 156.348 314.226 156.056 313.884C155.764 313.543 155.525 313.147 155.525 313.024C155.525 312.887 155.418 312.641 155.286 312.464C154.954 311.972 154.741 311.631 154.595 311.276C154.25 310.484 154.171 310.32 153.786 309.692C153.48 309.173 153.401 308.913 153.454 308.585C153.507 308.326 153.467 308.066 153.348 307.889C153.241 307.739 153.109 307.274 153.069 306.865C153.016 306.455 152.87 305.881 152.75 305.581C152.352 304.652 152.206 304.092 152.312 303.997C152.472 303.833 155.631 302.904 156.308 302.822C158.458 302.563 159.653 303.601 161.432 307.288C163.117 310.77 164.458 312.041 167.139 312.751C169.383 313.338 172.17 313.338 174.799 312.751C176.298 312.423 176.63 312.232 177.241 311.358C177.533 310.962 178.29 310.019 178.94 309.268C179.59 308.517 180.692 307.192 181.369 306.332C182.046 305.472 182.949 304.324 183.36 303.792C183.785 303.246 184.568 302.235 185.099 301.538C186.48 299.681 188.922 296.663 189.798 295.693C190.223 295.229 190.807 294.423 191.099 293.904C191.577 293.058 192.426 291.856 195.4 287.841C195.891 287.171 196.395 286.407 196.502 286.134C197.404 283.935 197.909 283.061 198.984 281.695C199.475 281.067 199.581 280.821 199.661 280.152C199.833 278.527 200.019 277.707 200.404 276.86C200.656 276.301 200.842 275.618 200.922 274.949C200.988 274.361 201.254 273.282 201.506 272.531C201.771 271.78 202.196 270.36 202.448 269.39C202.701 268.407 203.059 267.109 203.232 266.509C203.431 265.826 203.643 264.542 203.776 263.176C204.134 259.462 204.36 258.792 205.82 257.099C206.869 255.897 206.829 256.348 206.271 253.07C205.913 250.844 204.785 245.586 204.015 242.486L203.51 240.438L203.524 237.501C203.537 234.633 203.55 234.524 203.975 232.926C204.718 230.099 204.758 229.854 204.864 226.644L204.97 223.503L205.409 222.561C205.647 222.042 206.218 221.031 206.683 220.307C207.665 218.778 207.838 218.423 208.156 217.453C208.488 216.402 208.873 215.992 209.922 215.637C211.023 215.268 211.475 215.036 212.085 214.544C212.643 214.094 212.948 214.053 213.373 214.367C213.652 214.558 213.758 214.544 214.833 214.244C216.957 213.616 217.501 213.547 222.691 213.261L223.952 213.192L224.483 213.684Z" fill="#FFD166"/>
<path d="M531.768 2.75363C530.012 3.28035 527.988 4.35839 526.89 5.33432C526.247 5.91183 525.402 7.05556 525.162 7.66841C525.05 7.95787 524.859 8.85502 524.745 9.6589C524.473 11.4851 524.549 12.7951 524.959 13.2473C525.417 13.7483 525.883 13.8844 526.831 13.7908C527.918 13.6836 528.355 13.4262 529.328 12.377C531.104 10.4237 532.902 9.66792 534.762 10.0842C536.785 10.5271 539.582 12.479 540.954 14.3893C542.126 16.0195 542.532 17.2968 542.844 20.2436C543.048 22.1943 543.048 22.5263 542.912 24.4141C542.495 30.0034 541.794 33.2643 540.084 37.6317C539.636 38.7577 539.435 39.1203 538.689 40.0721C537.379 41.733 534.843 44.2754 533.979 44.7891C532.555 45.6258 531.177 45.8368 528.592 45.5885C524.791 45.2353 521.979 45.2021 518.123 45.4863C514.832 45.7254 512.288 46.1157 506.24 47.3123C498.706 48.8163 499.052 48.7285 482.688 52.7855C480.325 53.3721 478.003 53.944 477.541 54.0539C477.079 54.1744 476.322 54.4633 475.872 54.7005C474.716 55.3073 474.004 55.5061 472.586 55.6354C471.648 55.7279 470.957 55.7104 469.675 55.5799C466.892 55.2975 465.363 55.0629 464.542 54.8119C463.687 54.5428 459.654 52.3916 457.122 50.8313C455.153 49.6333 454.227 49.1891 452.686 48.7307C449.648 47.8202 448.013 46.8462 445.602 44.5457C443.998 43.0117 442.724 41.8842 442.323 41.6346L441.945 41.4042L441.603 41.9734C441.336 42.4282 441.207 42.5374 440.951 42.5626C440.77 42.5805 440.545 42.6991 440.43 42.839C440.218 43.0955 440.223 43.1379 440.498 45.0601C440.836 47.5009 440.86 47.852 440.713 48.3271C440.542 48.8795 440.169 49.2483 439.142 49.8531C436.764 51.266 435.803 52.4319 434.493 55.5172C433.759 57.2391 433.278 58.0363 432.241 59.3061C431.742 59.9124 431.244 60.647 431.105 60.982C430.714 61.931 430.786 62.2238 431.852 63.8645C433.477 66.3711 434.156 67.1502 435.154 67.6623C436.095 68.1478 436.692 68.2066 438.12 67.9586C438.765 67.8414 439.615 67.7254 440.009 67.6865C441.386 67.5721 442.773 68.0028 444.028 68.9394C444.435 69.2526 444.846 69.4905 444.931 69.4821C445.24 69.4516 446.04 70.0261 446.636 70.7277C447.353 71.5567 448.718 73.7247 449.636 75.4979L450.273 76.7203L450.475 80.0742C450.581 81.9167 450.726 84.6978 450.783 86.256C450.851 87.813 450.994 90.1339 451.11 91.4184L451.329 93.7531L450.66 96.0149C450.288 97.2619 449.832 98.6457 449.65 99.0921C449.05 100.533 447.055 104.082 445.23 106.962C443.666 109.429 438.818 115.477 437.814 116.208C437.352 116.543 437.268 116.562 435.947 116.703C434.743 116.822 434.501 116.878 434.137 117.117C433.905 117.269 433.466 117.516 433.17 117.673C432.483 118.02 432.154 118.395 431.934 119.102C431.628 120.043 431.927 120.999 432.711 121.639C433.004 121.878 433.214 121.932 434.178 121.998C435.609 122.103 438.229 121.94 439.449 121.659C440.513 121.426 441.442 120.916 442.362 120.097C443.754 118.835 444.016 118.649 444.814 118.345C445.26 118.173 445.764 117.941 445.936 117.827C446.119 117.713 447.089 116.643 448.091 115.451C450.335 112.788 451.433 111.705 453.876 109.75C456.828 107.381 458.275 106.017 459.734 104.224C460.444 103.35 461.297 102.398 461.623 102.109C462.593 101.253 465 98.2735 465.247 97.6171C465.641 96.5929 466.853 95.3487 468.744 94.016C469.328 93.605 470.016 93.0551 470.259 92.7954C470.843 92.1701 471.189 92.0718 471.735 92.3713C472.28 92.6603 472.806 92.7583 473.52 92.6879C474.234 92.6174 477.564 92.6743 478.672 92.7792C480.735 92.9613 481.26 93.3807 483.54 96.6367C487.663 102.538 487.892 102.901 489.614 106.18C491.656 110.081 491.898 110.678 491.539 111.067C491.441 111.173 491.023 111.407 490.601 111.599C489.634 112.048 489.118 112.484 488.825 113.124C488.496 113.82 488.602 114.677 489.166 115.918C489.387 116.41 489.589 116.829 489.624 116.858C489.766 116.983 492.882 117.05 494.293 116.954C496.1 116.84 497.27 116.585 497.653 116.215C498.105 115.785 498.192 115.027 498 113.086C497.654 109.575 496.785 105.462 495.589 101.628C494.491 98.1372 492.254 90.2929 492.201 89.7519C492.175 89.4973 492.236 89.4592 493.286 89.0878C493.889 88.8677 494.591 88.5734 494.836 88.4315C495.701 87.9284 498.643 87.5416 504.002 87.2163C508.003 86.9821 509.528 86.9494 512.056 87.0534C515.481 87.1974 515.674 87.189 516.651 86.8356C517.648 86.4695 517.913 86.4326 518.648 86.5743C519.855 86.8086 520.595 87.4424 521.212 88.7847C522.074 90.649 522.621 91.3983 524.188 92.8824C526.051 94.6372 529.56 98.5752 530.685 100.167C531.348 101.108 531.398 102.046 530.851 103.043C530.604 103.485 528.795 105.987 527.159 108.163C526.113 109.551 526.011 109.615 524.819 109.636C523.885 109.653 523.874 109.654 523.081 110.129C522.047 110.766 520.956 112.031 520.834 112.76C520.684 113.643 521.288 115.179 521.922 115.502C522.138 115.62 522.507 115.648 523.224 115.609C524.124 115.563 527.689 115.061 529.636 114.719L530.429 114.577L531.243 113.565C531.695 113.017 532.929 111.342 533.976 109.857C535.024 108.372 536.06 106.984 536.267 106.792C536.76 106.337 537.493 105.258 537.958 104.301C538.861 102.434 540.556 97.6935 540.621 96.8302C540.646 96.6457 540.382 95.4936 540.056 94.2619C539.233 91.162 538.909 89.7267 538.665 88.1334C538.452 86.6228 538.479 86.3524 538.915 86.1915C539.175 86.1016 542.618 86.7473 546.808 87.6619C547.831 87.8929 549.232 88.1296 549.927 88.2002C551.45 88.3605 552.254 88.549 553.23 88.956C555.263 89.8158 556.631 91.0303 557.78 92.9734C558.478 94.1576 560.34 98.1939 560.915 99.7758C561.21 100.582 561.576 101.778 561.727 102.438C562.096 104.104 562.627 104.909 564.127 106.153C564.772 106.689 564.976 106.798 565.253 106.77C565.669 106.729 566.418 106.141 567.16 105.265C567.834 104.459 567.952 103.912 567.791 102.278L567.674 101.09L566.719 99.1603C563.254 92.1761 562.429 90.2546 561.491 86.9626C561.261 86.1606 560.996 85.3298 560.912 85.1346C560.672 84.5479 559.769 82.9233 558.961 81.6105C558.233 80.44 558.172 80.371 557.598 80.1171C556.676 79.7154 555.703 79.0187 554.932 78.1844C554.548 77.7726 553.878 77.2067 553.441 76.9178C552.566 76.3401 551.987 75.7011 551.763 75.0698C551.54 74.4491 551.289 74.0883 550.512 73.2974C550.022 72.7996 549.784 72.4589 549.701 72.1672C549.269 70.5175 549.049 69.4895 548.712 67.5949C548.498 66.4058 548.269 65.2929 548.198 65.1179C548.104 64.9237 548.073 64.6161 548.113 64.2587C548.167 63.6001 547.932 62.8521 547.397 62.0159C546.787 61.0692 545.654 59.0711 545.303 58.3453C545.029 57.7511 544.922 57.3225 544.708 55.9191C544.563 54.9909 544.393 54.1401 544.328 54.0287C544.038 53.5967 543.839 52.6738 543.884 52.0375C543.972 51.0755 544.381 50.0926 546.164 46.5749C547.135 44.6369 548.005 42.773 548.3 41.9406C548.966 40.0755 549.112 39.7076 549.698 38.5573C550.228 37.4875 550.687 36.1462 550.93 34.9012C551.016 34.4643 551.24 33.6817 551.447 33.1579C551.85 32.122 552.014 31.3776 552.515 28.2862C553.051 24.988 553.073 24.5574 552.767 21.4601C552.47 18.4476 552.273 17.5458 551.387 15.1056C550.488 12.6452 549.077 10.1281 547.485 8.16457C546.382 6.80601 546.077 6.54695 545.304 6.34478C544.829 6.22028 544.442 6.01206 543.952 5.62133C542.726 4.6498 539.904 3.31099 537.744 2.68868C536.714 2.39401 536.334 2.35657 535.669 2.48647C535.585 2.50549 535.215 2.46699 534.854 2.40623C534.023 2.27401 532.959 2.38978 531.768 2.75363Z" fill="#FFD166"/>
</svg>
